<svg width="300" height="300" viewBox="0 0 300 300" fill="none" xmlns="http://www.w3.org/2000/svg">
<circle cx="150" cy="150" r="148" stroke="#EEEEEE" stroke-width="4"/>
<path d="M195.281 23H101.531C96.353 23.0058 91.3886 25.0654 87.727 28.727C84.0654 32.3886 82.0058 37.353 82 42.5312V245.656C82.0058 250.834 84.0654 255.799 87.727 259.461C91.3886 263.122 96.353 265.182 101.531 265.188H195.281C200.459 265.182 205.424 263.122 209.086 259.461C212.747 255.799 214.807 250.834 214.812 245.656V42.5312C214.807 37.353 212.747 32.3886 209.086 28.727C205.424 25.0654 200.459 23.0058 195.281 23ZM174.892 30.8125L172.548 42.5312H124.265L121.921 30.8125H174.892ZM207 245.656C206.997 248.763 205.761 251.742 203.564 253.939C201.367 256.136 198.388 257.372 195.281 257.375H101.531C98.4243 257.372 95.4456 256.136 93.2487 253.939C91.0518 251.742 89.816 248.763 89.8125 245.656V42.5312C89.816 39.4243 91.0518 36.4456 93.2487 34.2487C95.4456 32.0518 98.4243 30.816 101.531 30.8125H113.954L117.232 47.2036C117.409 48.0891 117.887 48.8859 118.586 49.4584C119.284 50.0309 120.159 50.3438 121.062 50.3438H175.75C176.653 50.3438 177.528 50.0309 178.227 49.4584C178.925 48.8859 179.403 48.0891 179.581 47.2036L182.859 30.8125H195.281C198.388 30.816 201.367 32.0518 203.564 34.2487C205.761 36.4456 206.997 39.4243 207 42.5312V245.656Z" fill="white"/>
<path d="M124.969 241.75H101.531C100.495 241.75 99.5017 242.162 98.7691 242.894C98.0365 243.627 97.625 244.62 97.625 245.656C97.625 246.692 98.0365 247.686 98.7691 248.418C99.5017 249.151 100.495 249.562 101.531 249.562H124.969C126.005 249.562 126.998 249.151 127.731 248.418C128.463 247.686 128.875 246.692 128.875 245.656C128.875 244.62 128.463 243.627 127.731 242.894C126.998 242.162 126.005 241.75 124.969 241.75Z" fill="white"/>
<path d="M140.594 241.75H136.688C135.651 241.75 134.658 242.162 133.925 242.894C133.193 243.627 132.781 244.62 132.781 245.656C132.781 246.692 133.193 247.686 133.925 248.418C134.658 249.151 135.651 249.562 136.688 249.562H140.594C141.63 249.562 142.623 249.151 143.356 248.418C144.088 247.686 144.5 246.692 144.5 245.656C144.5 244.62 144.088 243.627 143.356 242.894C142.623 242.162 141.63 241.75 140.594 241.75Z" fill="white"/>
<rect x="159" y="84" width="120" height="120" fill="#54CC0B"/>
<g clip-path="url(#clip0)">
<path d="M201.549 94.0938H172.978C171.005 94.0938 169.406 95.6927 169.406 97.6652V126.237C169.406 128.209 171.005 129.808 172.978 129.808H201.549C203.522 129.808 205.121 128.209 205.121 126.237V97.6652C205.121 95.6927 203.522 94.0938 201.549 94.0938ZM197.978 122.665H176.549V101.237H197.978V122.665Z" fill="white"/>
<path d="M187.263 104.808C185.291 104.808 183.692 106.407 183.692 108.379V115.522C183.692 117.495 185.291 119.094 187.263 119.094C189.236 119.094 190.835 117.495 190.835 115.522V108.379C190.835 106.407 189.236 104.808 187.263 104.808Z" fill="white"/>
<path d="M201.549 158.38H172.978C171.005 158.38 169.406 159.978 169.406 161.951V190.522C169.406 192.495 171.005 194.094 172.978 194.094H201.549C203.522 194.094 205.121 192.495 205.121 190.522V161.951C205.121 159.978 203.522 158.38 201.549 158.38ZM197.978 186.951H176.549V165.522H197.978V186.951Z" fill="white"/>
<path d="M187.263 169.094C185.291 169.094 183.692 170.693 183.692 172.665V179.808C183.692 181.781 185.291 183.38 187.263 183.38C189.236 183.38 190.835 181.781 190.835 179.808V172.665C190.835 170.693 189.236 169.094 187.263 169.094Z" fill="white"/>
<path d="M265.835 158.38H237.263C235.291 158.38 233.692 159.978 233.692 161.951V190.522C233.692 192.495 235.291 194.094 237.263 194.094H265.835C267.807 194.094 269.406 192.495 269.406 190.522V161.951C269.406 159.978 267.807 158.38 265.835 158.38ZM262.263 186.951H240.835V165.522H262.263V186.951Z" fill="white"/>
<path d="M251.549 169.094C249.577 169.094 247.978 170.693 247.978 172.665V179.808C247.978 181.781 249.577 183.38 251.549 183.38C253.522 183.38 255.121 181.781 255.121 179.808V172.665C255.121 170.693 253.522 169.094 251.549 169.094Z" fill="white"/>
<path d="M265.835 94.0938H247.978C246.005 94.0938 244.406 95.6927 244.406 97.6652C244.406 99.6378 246.005 101.237 247.978 101.237H262.264V115.522C262.264 117.495 263.862 119.094 265.835 119.094C267.808 119.094 269.407 117.495 269.407 115.522V97.6652C269.406 95.6927 267.807 94.0938 265.835 94.0938Z" fill="white"/>
<path d="M212.263 172.665C210.291 172.665 208.692 174.264 208.692 176.237V190.522C208.692 192.495 210.291 194.094 212.263 194.094C214.236 194.094 215.835 192.495 215.835 190.522V176.236C215.835 174.264 214.236 172.665 212.263 172.665Z" fill="white"/>
<path d="M230.12 129.808H212.263C210.291 129.808 208.692 131.407 208.692 133.38V147.665H197.978C196.005 147.665 194.406 149.264 194.406 151.237C194.406 153.209 196.005 154.808 197.978 154.808H212.263C214.236 154.808 215.835 153.209 215.835 151.237V136.951H230.121C232.093 136.951 233.692 135.352 233.692 133.379C233.692 131.407 232.093 129.808 230.12 129.808Z" fill="white"/>
<path d="M201.549 136.951H187.263C185.291 136.951 183.692 138.55 183.692 140.522C183.692 142.495 185.291 144.094 187.263 144.094H201.549C203.522 144.094 205.121 142.495 205.121 140.522C205.121 138.55 203.522 136.951 201.549 136.951Z" fill="white"/>
<path d="M230.12 119.094H215.835V108.379C215.835 106.407 214.236 104.808 212.263 104.808C210.291 104.808 208.692 106.407 208.692 108.379V122.665C208.692 124.638 210.291 126.237 212.263 126.237H230.12C232.093 126.237 233.692 124.638 233.692 122.665C233.692 120.693 232.093 119.094 230.12 119.094Z" fill="white"/>
<path d="M255.121 108.38H240.835V97.6652C240.835 95.6927 239.236 94.0938 237.263 94.0938H212.263C210.291 94.0938 208.692 95.6927 208.692 97.6652C208.692 99.6378 210.291 101.237 212.263 101.237H233.692V111.951C233.692 113.924 235.291 115.523 237.263 115.523H255.121C257.093 115.523 258.692 113.924 258.692 111.951C258.692 109.979 257.093 108.38 255.121 108.38Z" fill="white"/>
<path d="M240.835 119.094C238.862 119.094 237.263 120.693 237.263 122.665V136.951C237.263 138.923 238.862 140.522 240.835 140.522C242.807 140.522 244.406 138.923 244.406 136.951V122.665C244.406 120.693 242.807 119.094 240.835 119.094Z" fill="white"/>
<path d="M265.835 122.665H251.549C249.577 122.665 247.978 124.264 247.978 126.237C247.978 128.209 249.577 129.808 251.549 129.808H265.835C267.807 129.808 269.406 128.209 269.406 126.237C269.406 124.264 267.807 122.665 265.835 122.665Z" fill="white"/>
<path d="M265.835 133.379H251.549C249.577 133.379 247.978 134.978 247.978 136.951C247.978 138.923 249.577 140.522 251.549 140.522H262.263V151.237C262.263 153.209 263.862 154.808 265.835 154.808C267.807 154.808 269.406 153.209 269.406 151.237V136.951C269.406 134.978 267.807 133.379 265.835 133.379Z" fill="white"/>
<path d="M255.12 144.094H237.263C235.291 144.094 233.692 145.693 233.692 147.665C233.692 149.638 235.291 151.237 237.263 151.237H255.12C257.093 151.237 258.692 149.638 258.692 147.665C258.692 145.693 257.093 144.094 255.12 144.094Z" fill="white"/>
<path d="M226.549 161.951H212.263C210.291 161.951 208.692 163.55 208.692 165.522C208.692 167.495 210.291 169.094 212.263 169.094H222.978V190.522C222.978 192.495 224.577 194.094 226.549 194.094C228.522 194.094 230.121 192.495 230.121 190.522V165.522C230.12 163.55 228.521 161.951 226.549 161.951Z" fill="white"/>
<path d="M226.549 151.237H222.977C221.005 151.237 219.406 152.836 219.406 154.808C219.406 156.781 221.005 158.379 222.977 158.379H226.549C228.522 158.379 230.12 156.78 230.12 154.808C230.12 152.835 228.521 151.237 226.549 151.237Z" fill="white"/>
<path d="M226.549 140.522H222.977C221.005 140.522 219.406 142.121 219.406 144.094C219.406 146.066 221.005 147.665 222.977 147.665H226.549C228.522 147.665 230.12 146.066 230.12 144.094C230.12 142.121 228.521 140.522 226.549 140.522Z" fill="white"/>
<path d="M183.692 147.665H172.978C171.005 147.665 169.406 149.264 169.406 151.237C169.406 153.209 171.005 154.808 172.978 154.808H183.692C185.665 154.808 187.264 153.209 187.264 151.237C187.264 149.264 185.664 147.665 183.692 147.665Z" fill="white"/>
<path d="M222.977 104.808C221.005 104.808 219.406 106.407 219.406 108.379V111.951C219.406 113.923 221.005 115.522 222.977 115.522C224.95 115.522 226.549 113.923 226.549 111.951V108.379C226.549 106.407 224.95 104.808 222.977 104.808Z" fill="white"/>
<path d="M176.549 136.951H172.978C171.005 136.951 169.406 138.55 169.406 140.522C169.406 142.495 171.005 144.094 172.978 144.094H176.549C178.522 144.094 180.121 142.495 180.121 140.522C180.121 138.55 178.522 136.951 176.549 136.951Z" fill="white"/>
</g>
<defs>
<clipPath id="clip0">
<rect width="100" height="100" fill="white" transform="translate(169.406 94.0938)"/>
</clipPath>
</defs>
</svg>
